<?xml version="1.0" encoding="utf-8"?>
<!-- Generator: Adobe Illustrator 26.5.0, SVG Export Plug-In . SVG Version: 6.00 Build 0)  -->
<svg version="1.1" id="Layer_2" xmlns="http://www.w3.org/2000/svg" xmlns:xlink="http://www.w3.org/1999/xlink" x="0px" y="0px"
	 viewBox="0 0 1043.29 950.8" style="enable-background:new 0 0 1043.29 950.8;" xml:space="preserve">
<style type="text/css">
	.st0{fill:none;stroke:#231F20;stroke-width:4;stroke-miterlimit:10;}
	.st1{fill:none;stroke:#000000;stroke-width:4;stroke-miterlimit:10;}
</style>
<ellipse class="st0" cx="524.48" cy="474.99" rx="444.1" ry="428.73"/>
<path class="st1" d="M826.77,789.67H644.28c0,0-14,0-14,0c-5.39,0-10.78,0.01-16.17-0.07c-11.06-0.17-22.11-0.93-33.06-2.5
	c-1.47-0.21-2.97-0.45-4.27-1.16c-1.88-1.04-3.12-2.95-3.97-4.92c-8.52-19.64-4.43-40.6-4.43-61.27c0-8.14,0.65-17.46,3.27-25.39
	c2.89-8.74,8.6-13.9,15.39-19.66c12.25-10.39,26.52-18.56,39.85-27.67c15.4-10.53,32.36-19.7,45.07-33.63
	c13.73-15.05,16.15-32.32,8.91-51.12c0,0-1.15-3.17-1.17-3.22c-2.15-5.91-6.42-10.96-9.91-16.15c-1.96-2.91-2.64-6.11-1.51-9.47
	c1.19-3.55,4.1-6.29,4.68-10.06c0.83-5.36-2.33-10.63-6.61-13.68c-3.68-2.62-8.67-2.29-12.22-5.19c-0.04-0.04,3.82-4.15,4.27-4.72
	c3.69-4.71,5.81-11.54,4.59-17.5c-1.69-8.29-9.4-9.82-16.27-12.81c-4.37-1.9-7.13-7.1-6.39-11.76c1.29-8.12,12.23-13.69,16.71-20.36
	c4.9-7.29,7.88-17,2.64-24.71l-1.68-2.19c0,0-1.75-1.68-1.75-1.68c-10.08-7.2-21.62-12.41-32-19.25
	c-7.48-4.93-15.04-9.86-21.68-15.91c-6.82-6.23-11.15-13.67-14.67-22.14c-10.85-26.18-23.45-52.06-41.7-74.02
	c-18.56-22.33-41.66-40.18-68.5-51.31c0,0-3.09-1.29-3.14-1.32c-27.07-11.33-56.88-16.25-86.14-13.48
	c-18.9,1.79-37.36,6.25-55.28,12.45c-2.32,0.8-4.62,1.64-6.91,2.51c-64.35,24.47-120.49,76.53-141.58,143.05
	c-15.97,50.36-12.86,106.16,6.64,155.26c1.88,4.73,3.9,9.4,6.11,13.98c2.2,4.58,4.58,9.08,7.17,13.46
	c2.58,4.37,5.36,8.61,8.37,12.69c1.98,2.68,4.05,5.29,6.23,7.82c21.21,24.61,50.82,40,77.89,57.96
	c21.61,14.34,41.73,32.35,54.38,55.29c14.35,26.01,13.21,55.33,18.79,83.69c0.94,4.77,5.68,21.28,12.37,13.44
	c3.48-4.07,3.1-13.01,3.37-18.08c1.34-25.22,1.07-50.51,1.81-75.74c0.39-13.36,1.18-24.89-3.13-37.67
	c-4.17-12.35-12.38-22.96-21.59-32.18c-26.64-26.66-60.2-45.18-88.9-69.61c-49.96-42.52-58.92-113.92-34.34-174.59
	c7.07-17.44,18.66-36.14,30.46-50.53c20.58-25.09,45.86-39.88,75.89-52.15c18.71-7.64,39.07-10.36,59.26-11.3
	c15.96-0.74,32.28-0.36,47.38,4.85c25.46,8.8,44.15,23.79,60.4,45.28c20.29,26.82,33.41,64.75,27.52,98.47
	c-2.34,13.4-8.62,26.22-18.77,35.41c-11.66,10.55-28.17,10.31-43.1,9.33c-2.65-0.17-5.42-0.46-7.63-2.06
	c-2.39-1.73-2.71-5.45-3.2-8.16c-2.25-12.59-4.51-25.19-6.76-37.78c0,5.05-0.97,10.28-1.45,15.31c-0.49,5.21-0.99,10.41-1.48,15.62
	c-0.96,10.16-1.84,20.32-2.78,30.48c-0.72,7.82-0.54,15.56-1.26,23.38c1.04-11.31-1.94-24.28-2.64-35.82
	c-0.75-12.49-1.66-24.98-2.7-37.45c-2.1-25.05-3.24-50.36-8.05-75.09c0.53,2.72-1.52,8.28-1.84,11.3
	c-2.45,22.81-5.09,45.6-7.27,68.44c-2.59,27.04-4.72,54.13-6.4,81.24c-0.97,15.73-1.79,31.46-2.45,47.2
	c-1.06-45.37-2.53-90.9-6.71-136.1c0.41,4.77-1.31,10.2-2.06,14.91c-1.35,8.42-2.47,17.39-3.7,26.03
	c-0.64,4.47-1.31,8.93-2.09,13.38c-0.47,2.67,0.34,8.87-1.85,10.85c-3,2.71-3.25-6.69-3.51-8.94c-1.21-10.4-2.15-21.04-4.19-31.32
	c-0.15-0.77-0.43-2.77-1.46-2.96c-0.83-0.16-1.49,1.03-1.83,1.6c-1.61,2.67-2.57,5.83-3.52,8.79c-0.28,0.86-0.58,1.7-0.87,2.55
	c-1.03,2.93-6.09,2.96-8.57,2.99c-7.53,0-15.06,0.16-22.59,0.25c-5.62,0.06-11.3-0.2-16.91-0.54c-5-0.31-10.4-0.85-14.68,2.36
	c-2.78,2.08-4.43,5.47-4.81,8.92c-0.29,2.61,0.11,5.33,1.34,7.66c2,3.79,6.23,6.28,10.52,6.19c9.52-0.21,12.76-10.26,11.92-18.24
	c-0.19-1.8-0.53-3.61-1.26-5.27c-0.65-1.49-1.6-2.83-2.54-4.16c-14.05-19.85-28.08-39.71-42.11-59.57
	c-13.69-19.38-27.38-38.75-41.06-58.13c-13.69-19.38-27.38-38.76-41.07-58.14c-10.59-14.98-21.17-29.97-31.76-44.95
	c-4.37-6.19-8.75-12.39-13.13-18.59"/>
</svg>
